<mxfile host="app.diagrams.net" agent="Mozilla/5.0 (Windows NT 10.0; Win64; x64) AppleWebKit/537.36 (KHTML, like Gecko) Chrome/133.0.0.0 Safari/537.36 OPR/118.0.0.0" version="26.2.14">
  <diagram name="Page-1" id="vnKPR2s2aBz3UK-0kXDp">
    <mxGraphModel dx="2479" dy="1989" grid="1" gridSize="10" guides="1" tooltips="1" connect="1" arrows="1" fold="1" page="1" pageScale="1" pageWidth="850" pageHeight="1100" math="0" shadow="0">
      <root>
        <mxCell id="0" />
        <mxCell id="1" parent="0" />
        <mxCell id="rlX04aoV6FrLViZ-BKRS-1" value="cargo" style="rounded=0;whiteSpace=wrap;html=1;" parent="1" vertex="1">
          <mxGeometry x="170" y="1010" width="120" height="60" as="geometry" />
        </mxCell>
        <mxCell id="rlX04aoV6FrLViZ-BKRS-3" style="edgeStyle=orthogonalEdgeStyle;rounded=0;orthogonalLoop=1;jettySize=auto;html=1;exitX=1;exitY=0.25;exitDx=0;exitDy=0;endArrow=none;startFill=0;entryX=0;entryY=0.75;entryDx=0;entryDy=0;" parent="1" source="rlX04aoV6FrLViZ-BKRS-4" target="rlX04aoV6FrLViZ-BKRS-5" edge="1">
          <mxGeometry relative="1" as="geometry">
            <mxPoint x="540" y="165" as="targetPoint" />
            <Array as="points">
              <mxPoint x="210" y="165" />
              <mxPoint x="210" y="55" />
            </Array>
          </mxGeometry>
        </mxCell>
        <mxCell id="rlX04aoV6FrLViZ-BKRS-4" value="&lt;font style=&quot;font-size: 10px;&quot;&gt;cliente&lt;/font&gt;" style="rounded=0;whiteSpace=wrap;html=1;" parent="1" vertex="1">
          <mxGeometry x="150" y="150" width="120" height="60" as="geometry" />
        </mxCell>
        <mxCell id="jFBkz2gzpeNUejiPyCOK-3" style="edgeStyle=orthogonalEdgeStyle;rounded=0;orthogonalLoop=1;jettySize=auto;html=1;exitX=1;exitY=0.5;exitDx=0;exitDy=0;entryX=0;entryY=0.5;entryDx=0;entryDy=0;endArrow=none;startFill=0;" parent="1" source="rlX04aoV6FrLViZ-BKRS-5" target="jFBkz2gzpeNUejiPyCOK-1" edge="1">
          <mxGeometry relative="1" as="geometry">
            <Array as="points">
              <mxPoint x="1080" y="40" />
              <mxPoint x="1080" y="310" />
            </Array>
          </mxGeometry>
        </mxCell>
        <mxCell id="rlX04aoV6FrLViZ-BKRS-5" value="&lt;span style=&quot;font-size: 10px;&quot;&gt;ticket de suporte&lt;/span&gt;" style="rounded=0;whiteSpace=wrap;html=1;" parent="1" vertex="1">
          <mxGeometry x="600" y="10" width="120" height="60" as="geometry" />
        </mxCell>
        <mxCell id="jFBkz2gzpeNUejiPyCOK-4" style="edgeStyle=orthogonalEdgeStyle;rounded=0;orthogonalLoop=1;jettySize=auto;html=1;entryX=0.25;entryY=1;entryDx=0;entryDy=0;exitX=0.5;exitY=1;exitDx=0;exitDy=0;" parent="1" edge="1">
          <mxGeometry relative="1" as="geometry">
            <mxPoint x="1050" y="325" as="targetPoint" />
            <mxPoint x="640" y="480" as="sourcePoint" />
            <Array as="points">
              <mxPoint x="640" y="570" />
              <mxPoint x="1050" y="570" />
            </Array>
          </mxGeometry>
        </mxCell>
        <mxCell id="rlX04aoV6FrLViZ-BKRS-6" value="&lt;font style=&quot;font-size: 10px;&quot;&gt;projeto&lt;/font&gt;" style="rounded=0;whiteSpace=wrap;html=1;" parent="1" vertex="1">
          <mxGeometry x="580" y="435" width="120" height="60" as="geometry" />
        </mxCell>
        <mxCell id="rlX04aoV6FrLViZ-BKRS-7" style="edgeStyle=orthogonalEdgeStyle;rounded=0;orthogonalLoop=1;jettySize=auto;html=1;exitX=0.5;exitY=1;exitDx=0;exitDy=0;" parent="1" source="rlX04aoV6FrLViZ-BKRS-6" target="rlX04aoV6FrLViZ-BKRS-6" edge="1">
          <mxGeometry relative="1" as="geometry" />
        </mxCell>
        <mxCell id="rlX04aoV6FrLViZ-BKRS-8" style="edgeStyle=orthogonalEdgeStyle;rounded=0;orthogonalLoop=1;jettySize=auto;html=1;entryX=0.5;entryY=0;entryDx=0;entryDy=0;endArrow=none;startFill=0;" parent="1" source="rlX04aoV6FrLViZ-BKRS-9" target="rlX04aoV6FrLViZ-BKRS-1" edge="1">
          <mxGeometry relative="1" as="geometry" />
        </mxCell>
        <mxCell id="rlX04aoV6FrLViZ-BKRS-9" value="&lt;font style=&quot;font-size: 10px;&quot;&gt;exerce&lt;/font&gt;" style="rhombus;whiteSpace=wrap;html=1;" parent="1" vertex="1">
          <mxGeometry x="195" y="870" width="70" height="50" as="geometry" />
        </mxCell>
        <mxCell id="rlX04aoV6FrLViZ-BKRS-10" style="edgeStyle=orthogonalEdgeStyle;rounded=0;orthogonalLoop=1;jettySize=auto;html=1;endArrow=none;startFill=0;exitX=0.341;exitY=1.048;exitDx=0;exitDy=0;exitPerimeter=0;" parent="1" target="rlX04aoV6FrLViZ-BKRS-6" edge="1" source="rlX04aoV6FrLViZ-BKRS-5">
          <mxGeometry relative="1" as="geometry">
            <mxPoint x="640" y="80" as="sourcePoint" />
          </mxGeometry>
        </mxCell>
        <mxCell id="jFBkz2gzpeNUejiPyCOK-5" style="edgeStyle=orthogonalEdgeStyle;rounded=0;orthogonalLoop=1;jettySize=auto;html=1;exitX=0.75;exitY=1;exitDx=0;exitDy=0;endArrow=none;startFill=0;entryX=0.75;entryY=1;entryDx=0;entryDy=0;" parent="1" source="rlX04aoV6FrLViZ-BKRS-12" target="jFBkz2gzpeNUejiPyCOK-1" edge="1">
          <mxGeometry relative="1" as="geometry">
            <mxPoint x="1080" y="370" as="targetPoint" />
            <Array as="points">
              <mxPoint x="260" y="630" />
              <mxPoint x="1110" y="630" />
            </Array>
          </mxGeometry>
        </mxCell>
        <mxCell id="rlX04aoV6FrLViZ-BKRS-12" value="" style="rounded=0;whiteSpace=wrap;html=1;" parent="1" vertex="1">
          <mxGeometry x="170" y="435" width="120" height="60" as="geometry" />
        </mxCell>
        <mxCell id="rlX04aoV6FrLViZ-BKRS-13" style="edgeStyle=orthogonalEdgeStyle;rounded=0;orthogonalLoop=1;jettySize=auto;html=1;exitX=0.5;exitY=1;exitDx=0;exitDy=0;" parent="1" source="rlX04aoV6FrLViZ-BKRS-12" target="rlX04aoV6FrLViZ-BKRS-12" edge="1">
          <mxGeometry relative="1" as="geometry" />
        </mxCell>
        <mxCell id="rlX04aoV6FrLViZ-BKRS-14" style="edgeStyle=orthogonalEdgeStyle;rounded=0;orthogonalLoop=1;jettySize=auto;html=1;entryX=0;entryY=0.5;entryDx=0;entryDy=0;endArrow=none;startFill=0;" parent="1" source="rlX04aoV6FrLViZ-BKRS-16" target="rlX04aoV6FrLViZ-BKRS-6" edge="1">
          <mxGeometry relative="1" as="geometry" />
        </mxCell>
        <mxCell id="rlX04aoV6FrLViZ-BKRS-15" style="edgeStyle=orthogonalEdgeStyle;rounded=0;orthogonalLoop=1;jettySize=auto;html=1;entryX=0.5;entryY=0;entryDx=0;entryDy=0;endArrow=none;startFill=0;" parent="1" source="rlX04aoV6FrLViZ-BKRS-16" target="rlX04aoV6FrLViZ-BKRS-19" edge="1">
          <mxGeometry relative="1" as="geometry" />
        </mxCell>
        <mxCell id="rlX04aoV6FrLViZ-BKRS-16" value="&lt;font style=&quot;font-size: 10px;&quot;&gt;etapas do projeto&lt;/font&gt;" style="rhombus;whiteSpace=wrap;html=1;" parent="1" vertex="1">
          <mxGeometry x="170" y="435" width="120" height="60" as="geometry" />
        </mxCell>
        <mxCell id="rlX04aoV6FrLViZ-BKRS-17" style="edgeStyle=orthogonalEdgeStyle;rounded=0;orthogonalLoop=1;jettySize=auto;html=1;exitX=0.5;exitY=1;exitDx=0;exitDy=0;" parent="1" edge="1">
          <mxGeometry relative="1" as="geometry">
            <mxPoint x="660" y="515" as="sourcePoint" />
            <mxPoint x="660" y="515" as="targetPoint" />
          </mxGeometry>
        </mxCell>
        <mxCell id="rlX04aoV6FrLViZ-BKRS-18" style="edgeStyle=orthogonalEdgeStyle;rounded=0;orthogonalLoop=1;jettySize=auto;html=1;entryX=0.5;entryY=0;entryDx=0;entryDy=0;endArrow=none;startFill=0;" parent="1" source="rlX04aoV6FrLViZ-BKRS-19" target="rlX04aoV6FrLViZ-BKRS-9" edge="1">
          <mxGeometry relative="1" as="geometry" />
        </mxCell>
        <mxCell id="jFBkz2gzpeNUejiPyCOK-14" style="edgeStyle=orthogonalEdgeStyle;rounded=0;orthogonalLoop=1;jettySize=auto;html=1;exitX=0;exitY=0.5;exitDx=0;exitDy=0;entryX=0;entryY=0.25;entryDx=0;entryDy=0;endArrow=none;startFill=0;" parent="1" source="rlX04aoV6FrLViZ-BKRS-19" target="rlX04aoV6FrLViZ-BKRS-5" edge="1">
          <mxGeometry relative="1" as="geometry">
            <Array as="points">
              <mxPoint x="-90" y="750" />
              <mxPoint x="-90" y="30" />
              <mxPoint x="600" y="30" />
            </Array>
          </mxGeometry>
        </mxCell>
        <mxCell id="rlX04aoV6FrLViZ-BKRS-19" value="&lt;font style=&quot;font-size: 10px;&quot;&gt;funcionario&lt;/font&gt;" style="rounded=0;whiteSpace=wrap;html=1;" parent="1" vertex="1">
          <mxGeometry x="170" y="720" width="120" height="60" as="geometry" />
        </mxCell>
        <mxCell id="rlX04aoV6FrLViZ-BKRS-20" style="edgeStyle=orthogonalEdgeStyle;rounded=0;orthogonalLoop=1;jettySize=auto;html=1;exitX=0.5;exitY=1;exitDx=0;exitDy=0;" parent="1" source="rlX04aoV6FrLViZ-BKRS-19" target="rlX04aoV6FrLViZ-BKRS-19" edge="1">
          <mxGeometry relative="1" as="geometry" />
        </mxCell>
        <mxCell id="rlX04aoV6FrLViZ-BKRS-21" style="rounded=0;orthogonalLoop=1;jettySize=auto;html=1;entryX=0;entryY=0.5;entryDx=0;entryDy=0;endArrow=none;startFill=0;" parent="1" source="rlX04aoV6FrLViZ-BKRS-22" target="rlX04aoV6FrLViZ-BKRS-4" edge="1">
          <mxGeometry relative="1" as="geometry" />
        </mxCell>
        <mxCell id="rlX04aoV6FrLViZ-BKRS-22" value="&lt;font style=&quot;font-size: 10px;&quot;&gt;contato&lt;/font&gt;" style="ellipse;whiteSpace=wrap;html=1;" parent="1" vertex="1">
          <mxGeometry x="30" y="165" width="60" height="30" as="geometry" />
        </mxCell>
        <mxCell id="rlX04aoV6FrLViZ-BKRS-23" style="rounded=0;orthogonalLoop=1;jettySize=auto;html=1;entryX=0;entryY=0.25;entryDx=0;entryDy=0;endArrow=none;startFill=0;" parent="1" source="rlX04aoV6FrLViZ-BKRS-24" target="rlX04aoV6FrLViZ-BKRS-4" edge="1">
          <mxGeometry relative="1" as="geometry" />
        </mxCell>
        <mxCell id="rlX04aoV6FrLViZ-BKRS-24" value="&lt;font style=&quot;font-size: 10px;&quot;&gt;id_cliente&lt;/font&gt;" style="ellipse;whiteSpace=wrap;html=1;" parent="1" vertex="1">
          <mxGeometry x="50" y="120" width="60" height="30" as="geometry" />
        </mxCell>
        <mxCell id="rlX04aoV6FrLViZ-BKRS-25" style="rounded=0;orthogonalLoop=1;jettySize=auto;html=1;exitX=0.5;exitY=1;exitDx=0;exitDy=0;endArrow=none;startFill=0;entryX=0;entryY=0;entryDx=0;entryDy=0;" parent="1" source="rlX04aoV6FrLViZ-BKRS-26" edge="1" target="rlX04aoV6FrLViZ-BKRS-5">
          <mxGeometry relative="1" as="geometry">
            <mxPoint x="650" y="10" as="targetPoint" />
          </mxGeometry>
        </mxCell>
        <mxCell id="rlX04aoV6FrLViZ-BKRS-26" value="&lt;font style=&quot;font-size: 10px;&quot;&gt;id_ticket&lt;/font&gt;" style="ellipse;whiteSpace=wrap;html=1;" parent="1" vertex="1">
          <mxGeometry x="530" y="-50" width="60" height="30" as="geometry" />
        </mxCell>
        <mxCell id="rlX04aoV6FrLViZ-BKRS-27" value="&lt;font style=&quot;font-size: 10px;&quot;&gt;descricao&lt;/font&gt;" style="ellipse;whiteSpace=wrap;html=1;" parent="1" vertex="1">
          <mxGeometry x="600" y="-70" width="60" height="30" as="geometry" />
        </mxCell>
        <mxCell id="rlX04aoV6FrLViZ-BKRS-28" style="rounded=0;orthogonalLoop=1;jettySize=auto;html=1;exitX=0.5;exitY=1;exitDx=0;exitDy=0;entryX=0.592;entryY=-0.042;entryDx=0;entryDy=0;endArrow=none;startFill=0;entryPerimeter=0;" parent="1" source="rlX04aoV6FrLViZ-BKRS-29" target="rlX04aoV6FrLViZ-BKRS-5" edge="1">
          <mxGeometry relative="1" as="geometry">
            <Array as="points">
              <mxPoint x="670" y="10" />
            </Array>
          </mxGeometry>
        </mxCell>
        <mxCell id="rlX04aoV6FrLViZ-BKRS-29" value="&lt;font style=&quot;font-size: 10px;&quot;&gt;data_abertura&lt;/font&gt;" style="ellipse;whiteSpace=wrap;html=1;" parent="1" vertex="1">
          <mxGeometry x="680" y="-70" width="60" height="30" as="geometry" />
        </mxCell>
        <mxCell id="rlX04aoV6FrLViZ-BKRS-30" style="rounded=0;orthogonalLoop=1;jettySize=auto;html=1;exitX=0;exitY=1;exitDx=0;exitDy=0;entryX=1;entryY=0;entryDx=0;entryDy=0;endArrow=none;startFill=0;" parent="1" source="rlX04aoV6FrLViZ-BKRS-31" edge="1" target="rlX04aoV6FrLViZ-BKRS-5">
          <mxGeometry relative="1" as="geometry">
            <mxPoint x="709.9999999999998" y="40" as="targetPoint" />
          </mxGeometry>
        </mxCell>
        <mxCell id="rlX04aoV6FrLViZ-BKRS-31" value="&lt;font style=&quot;font-size: 10px;&quot;&gt;data_fechamento&lt;/font&gt;" style="ellipse;whiteSpace=wrap;html=1;" parent="1" vertex="1">
          <mxGeometry x="750" y="-60" width="60" height="30" as="geometry" />
        </mxCell>
        <mxCell id="rlX04aoV6FrLViZ-BKRS-34" value="&lt;font style=&quot;font-size: 10px;&quot;&gt;descricao&lt;/font&gt;" style="ellipse;whiteSpace=wrap;html=1;" parent="1" vertex="1">
          <mxGeometry x="770" y="435" width="60" height="30" as="geometry" />
        </mxCell>
        <mxCell id="rlX04aoV6FrLViZ-BKRS-35" value="&lt;font style=&quot;font-size: 10px;&quot;&gt;data_abertura&lt;/font&gt;" style="ellipse;whiteSpace=wrap;html=1;" parent="1" vertex="1">
          <mxGeometry x="770" y="480" width="60" height="30" as="geometry" />
        </mxCell>
        <mxCell id="rlX04aoV6FrLViZ-BKRS-36" value="&lt;font style=&quot;font-size: 10px;&quot;&gt;caminho_doc&lt;/font&gt;" style="ellipse;whiteSpace=wrap;html=1;" parent="1" vertex="1">
          <mxGeometry x="750" y="390" width="60" height="30" as="geometry" />
        </mxCell>
        <mxCell id="rlX04aoV6FrLViZ-BKRS-37" value="&lt;font style=&quot;font-size: 10px;&quot;&gt;data_fechamento&lt;/font&gt;" style="ellipse;whiteSpace=wrap;html=1;" parent="1" vertex="1">
          <mxGeometry x="710" y="515" width="60" height="30" as="geometry" />
        </mxCell>
        <mxCell id="rlX04aoV6FrLViZ-BKRS-38" value="&lt;font style=&quot;font-size: 10px;&quot;&gt;id_projeto&lt;/font&gt;" style="ellipse;whiteSpace=wrap;html=1;" parent="1" vertex="1">
          <mxGeometry x="710" y="360" width="60" height="30" as="geometry" />
        </mxCell>
        <mxCell id="rlX04aoV6FrLViZ-BKRS-40" value="&lt;font style=&quot;font-size: 10px;&quot;&gt;caminho_projeto&lt;/font&gt;" style="ellipse;whiteSpace=wrap;html=1;" parent="1" vertex="1">
          <mxGeometry x="670" y="330" width="60" height="30" as="geometry" />
        </mxCell>
        <mxCell id="rlX04aoV6FrLViZ-BKRS-41" style="rounded=0;orthogonalLoop=1;jettySize=auto;html=1;entryX=0;entryY=0.5;entryDx=0;entryDy=0;endArrow=none;startFill=0;" parent="1" source="rlX04aoV6FrLViZ-BKRS-42" target="rlX04aoV6FrLViZ-BKRS-12" edge="1">
          <mxGeometry relative="1" as="geometry" />
        </mxCell>
        <mxCell id="rlX04aoV6FrLViZ-BKRS-42" value="&lt;font style=&quot;font-size: 10px;&quot;&gt;data_inicio&lt;/font&gt;" style="ellipse;whiteSpace=wrap;html=1;" parent="1" vertex="1">
          <mxGeometry x="20" y="465" width="60" height="30" as="geometry" />
        </mxCell>
        <mxCell id="rlX04aoV6FrLViZ-BKRS-44" value="&lt;font style=&quot;font-size: 10px;&quot;&gt;id_etapa&lt;/font&gt;" style="ellipse;whiteSpace=wrap;html=1;" parent="1" vertex="1">
          <mxGeometry x="70" y="340" width="60" height="30" as="geometry" />
        </mxCell>
        <mxCell id="rlX04aoV6FrLViZ-BKRS-45" value="&lt;font style=&quot;font-size: 10px;&quot;&gt;descricao&lt;/font&gt;" style="ellipse;whiteSpace=wrap;html=1;" parent="1" vertex="1">
          <mxGeometry x="20" y="420" width="60" height="30" as="geometry" />
        </mxCell>
        <mxCell id="rlX04aoV6FrLViZ-BKRS-46" value="&lt;font style=&quot;font-size: 10px;&quot;&gt;data_fim_real&lt;/font&gt;" style="ellipse;whiteSpace=wrap;html=1;" parent="1" vertex="1">
          <mxGeometry x="40" y="550" width="60" height="30" as="geometry" />
        </mxCell>
        <mxCell id="rlX04aoV6FrLViZ-BKRS-47" value="&lt;font style=&quot;font-size: 10px;&quot;&gt;nome&lt;/font&gt;" style="ellipse;whiteSpace=wrap;html=1;" parent="1" vertex="1">
          <mxGeometry x="40" y="380" width="60" height="30" as="geometry" />
        </mxCell>
        <mxCell id="rlX04aoV6FrLViZ-BKRS-48" value="&lt;font style=&quot;font-size: 10px;&quot;&gt;data_fim_prevista&lt;/font&gt;" style="ellipse;whiteSpace=wrap;html=1;" parent="1" vertex="1">
          <mxGeometry x="20" y="510" width="60" height="30" as="geometry" />
        </mxCell>
        <mxCell id="rlX04aoV6FrLViZ-BKRS-49" style="rounded=0;orthogonalLoop=1;jettySize=auto;html=1;entryX=1;entryY=0.25;entryDx=0;entryDy=0;endArrow=none;startFill=0;" parent="1" source="rlX04aoV6FrLViZ-BKRS-50" target="rlX04aoV6FrLViZ-BKRS-19" edge="1">
          <mxGeometry relative="1" as="geometry" />
        </mxCell>
        <mxCell id="rlX04aoV6FrLViZ-BKRS-50" value="&lt;font style=&quot;font-size: 10px;&quot;&gt;salario_hora&lt;/font&gt;" style="ellipse;whiteSpace=wrap;html=1;" parent="1" vertex="1">
          <mxGeometry x="290" y="660" width="60" height="30" as="geometry" />
        </mxCell>
        <mxCell id="rlX04aoV6FrLViZ-BKRS-51" style="rounded=0;orthogonalLoop=1;jettySize=auto;html=1;exitX=0.5;exitY=0;exitDx=0;exitDy=0;entryX=1;entryY=0.75;entryDx=0;entryDy=0;endArrow=none;startFill=0;" parent="1" source="rlX04aoV6FrLViZ-BKRS-52" target="rlX04aoV6FrLViZ-BKRS-19" edge="1">
          <mxGeometry relative="1" as="geometry" />
        </mxCell>
        <mxCell id="rlX04aoV6FrLViZ-BKRS-52" value="&lt;font style=&quot;font-size: 10px;&quot;&gt;email&lt;/font&gt;" style="ellipse;whiteSpace=wrap;html=1;" parent="1" vertex="1">
          <mxGeometry x="280" y="820" width="60" height="30" as="geometry" />
        </mxCell>
        <mxCell id="rlX04aoV6FrLViZ-BKRS-53" style="rounded=0;orthogonalLoop=1;jettySize=auto;html=1;entryX=1;entryY=0.75;entryDx=0;entryDy=0;endArrow=none;startFill=0;" parent="1" source="rlX04aoV6FrLViZ-BKRS-54" target="rlX04aoV6FrLViZ-BKRS-19" edge="1">
          <mxGeometry relative="1" as="geometry" />
        </mxCell>
        <mxCell id="rlX04aoV6FrLViZ-BKRS-54" value="&lt;font style=&quot;font-size: 10px;&quot;&gt;telefone&lt;/font&gt;" style="ellipse;whiteSpace=wrap;html=1;" parent="1" vertex="1">
          <mxGeometry x="340" y="790" width="60" height="30" as="geometry" />
        </mxCell>
        <mxCell id="rlX04aoV6FrLViZ-BKRS-55" style="rounded=0;orthogonalLoop=1;jettySize=auto;html=1;entryX=1;entryY=0.5;entryDx=0;entryDy=0;endArrow=none;startFill=0;" parent="1" source="rlX04aoV6FrLViZ-BKRS-56" target="rlX04aoV6FrLViZ-BKRS-19" edge="1">
          <mxGeometry relative="1" as="geometry" />
        </mxCell>
        <mxCell id="rlX04aoV6FrLViZ-BKRS-56" value="&lt;font style=&quot;font-size: 10px;&quot;&gt;nome&lt;/font&gt;" style="ellipse;whiteSpace=wrap;html=1;" parent="1" vertex="1">
          <mxGeometry x="380" y="760" width="60" height="30" as="geometry" />
        </mxCell>
        <mxCell id="rlX04aoV6FrLViZ-BKRS-57" style="rounded=0;orthogonalLoop=1;jettySize=auto;html=1;entryX=1.008;entryY=0.4;entryDx=0;entryDy=0;endArrow=none;startFill=0;entryPerimeter=0;" parent="1" source="rlX04aoV6FrLViZ-BKRS-58" target="rlX04aoV6FrLViZ-BKRS-19" edge="1">
          <mxGeometry relative="1" as="geometry" />
        </mxCell>
        <mxCell id="rlX04aoV6FrLViZ-BKRS-58" value="&lt;font style=&quot;font-size: 10px;&quot;&gt;id_funcionario&lt;/font&gt;" style="ellipse;whiteSpace=wrap;html=1;" parent="1" vertex="1">
          <mxGeometry x="350" y="710" width="60" height="30" as="geometry" />
        </mxCell>
        <mxCell id="rlX04aoV6FrLViZ-BKRS-59" style="rounded=0;orthogonalLoop=1;jettySize=auto;html=1;entryX=1;entryY=0.5;entryDx=0;entryDy=0;endArrow=none;startFill=0;" parent="1" source="rlX04aoV6FrLViZ-BKRS-60" target="rlX04aoV6FrLViZ-BKRS-1" edge="1">
          <mxGeometry relative="1" as="geometry" />
        </mxCell>
        <mxCell id="rlX04aoV6FrLViZ-BKRS-60" value="&lt;font style=&quot;font-size: 10px;&quot;&gt;nome_cargo&lt;/font&gt;" style="ellipse;whiteSpace=wrap;html=1;" parent="1" vertex="1">
          <mxGeometry x="330" y="1025" width="60" height="30" as="geometry" />
        </mxCell>
        <mxCell id="rlX04aoV6FrLViZ-BKRS-61" style="edgeStyle=orthogonalEdgeStyle;rounded=0;orthogonalLoop=1;jettySize=auto;html=1;endArrow=none;startFill=0;entryX=0.25;entryY=0;entryDx=0;entryDy=0;" parent="1" source="rlX04aoV6FrLViZ-BKRS-62" target="rlX04aoV6FrLViZ-BKRS-6" edge="1">
          <mxGeometry relative="1" as="geometry">
            <mxPoint x="590" y="380" as="targetPoint" />
          </mxGeometry>
        </mxCell>
        <mxCell id="rlX04aoV6FrLViZ-BKRS-62" value="&lt;font style=&quot;font-size: 10px;&quot;&gt;solicita&lt;/font&gt;" style="rhombus;whiteSpace=wrap;html=1;" parent="1" vertex="1">
          <mxGeometry x="170" y="340" width="70" height="50" as="geometry" />
        </mxCell>
        <mxCell id="rlX04aoV6FrLViZ-BKRS-63" value="&lt;font style=&quot;font-size: 10px;&quot;&gt;orcamento_disponivel&lt;/font&gt;" style="ellipse;whiteSpace=wrap;html=1;" parent="1" vertex="1">
          <mxGeometry x="50" y="210" width="60" height="30" as="geometry" />
        </mxCell>
        <mxCell id="rlX04aoV6FrLViZ-BKRS-64" style="rounded=0;orthogonalLoop=1;jettySize=auto;html=1;entryX=0;entryY=0.844;entryDx=0;entryDy=0;entryPerimeter=0;endArrow=none;startFill=0;" parent="1" source="rlX04aoV6FrLViZ-BKRS-63" target="rlX04aoV6FrLViZ-BKRS-4" edge="1">
          <mxGeometry relative="1" as="geometry" />
        </mxCell>
        <mxCell id="rlX04aoV6FrLViZ-BKRS-66" style="rounded=0;orthogonalLoop=1;jettySize=auto;html=1;exitX=0.5;exitY=1;exitDx=0;exitDy=0;entryX=0.895;entryY=0.006;entryDx=0;entryDy=0;entryPerimeter=0;endArrow=none;startFill=0;" parent="1" source="rlX04aoV6FrLViZ-BKRS-40" target="rlX04aoV6FrLViZ-BKRS-6" edge="1">
          <mxGeometry relative="1" as="geometry" />
        </mxCell>
        <mxCell id="rlX04aoV6FrLViZ-BKRS-68" style="rounded=0;orthogonalLoop=1;jettySize=auto;html=1;exitX=0;exitY=0;exitDx=0;exitDy=0;entryX=0.769;entryY=0.998;entryDx=0;entryDy=0;entryPerimeter=0;endArrow=none;startFill=0;" parent="1" source="rlX04aoV6FrLViZ-BKRS-37" target="rlX04aoV6FrLViZ-BKRS-6" edge="1">
          <mxGeometry relative="1" as="geometry" />
        </mxCell>
        <mxCell id="rlX04aoV6FrLViZ-BKRS-69" style="rounded=0;orthogonalLoop=1;jettySize=auto;html=1;exitX=0;exitY=0.5;exitDx=0;exitDy=0;entryX=1.001;entryY=0.811;entryDx=0;entryDy=0;entryPerimeter=0;endArrow=none;startFill=0;" parent="1" source="rlX04aoV6FrLViZ-BKRS-35" target="rlX04aoV6FrLViZ-BKRS-6" edge="1">
          <mxGeometry relative="1" as="geometry" />
        </mxCell>
        <mxCell id="rlX04aoV6FrLViZ-BKRS-70" style="rounded=0;orthogonalLoop=1;jettySize=auto;html=1;exitX=0;exitY=0.5;exitDx=0;exitDy=0;entryX=1.001;entryY=0.566;entryDx=0;entryDy=0;entryPerimeter=0;endArrow=none;startFill=0;" parent="1" source="rlX04aoV6FrLViZ-BKRS-34" target="rlX04aoV6FrLViZ-BKRS-6" edge="1">
          <mxGeometry relative="1" as="geometry" />
        </mxCell>
        <mxCell id="rlX04aoV6FrLViZ-BKRS-71" style="rounded=0;orthogonalLoop=1;jettySize=auto;html=1;exitX=0;exitY=1;exitDx=0;exitDy=0;entryX=1.001;entryY=0.352;entryDx=0;entryDy=0;entryPerimeter=0;endArrow=none;startFill=0;" parent="1" source="rlX04aoV6FrLViZ-BKRS-36" target="rlX04aoV6FrLViZ-BKRS-6" edge="1">
          <mxGeometry relative="1" as="geometry" />
        </mxCell>
        <mxCell id="rlX04aoV6FrLViZ-BKRS-73" style="rounded=0;orthogonalLoop=1;jettySize=auto;html=1;exitX=1;exitY=1;exitDx=0;exitDy=0;entryX=0.083;entryY=-0.005;entryDx=0;entryDy=0;entryPerimeter=0;endArrow=none;startFill=0;" parent="1" source="rlX04aoV6FrLViZ-BKRS-44" target="rlX04aoV6FrLViZ-BKRS-12" edge="1">
          <mxGeometry relative="1" as="geometry" />
        </mxCell>
        <mxCell id="rlX04aoV6FrLViZ-BKRS-74" style="rounded=0;orthogonalLoop=1;jettySize=auto;html=1;exitX=1;exitY=0.5;exitDx=0;exitDy=0;entryX=-0.005;entryY=0.153;entryDx=0;entryDy=0;entryPerimeter=0;endArrow=none;startFill=0;" parent="1" source="rlX04aoV6FrLViZ-BKRS-47" target="rlX04aoV6FrLViZ-BKRS-12" edge="1">
          <mxGeometry relative="1" as="geometry" />
        </mxCell>
        <mxCell id="rlX04aoV6FrLViZ-BKRS-75" style="rounded=0;orthogonalLoop=1;jettySize=auto;html=1;exitX=1;exitY=0.5;exitDx=0;exitDy=0;entryX=0;entryY=0.346;entryDx=0;entryDy=0;entryPerimeter=0;endArrow=none;startFill=0;" parent="1" source="rlX04aoV6FrLViZ-BKRS-45" target="rlX04aoV6FrLViZ-BKRS-12" edge="1">
          <mxGeometry relative="1" as="geometry" />
        </mxCell>
        <mxCell id="rlX04aoV6FrLViZ-BKRS-76" style="rounded=0;orthogonalLoop=1;jettySize=auto;html=1;exitX=1;exitY=0.5;exitDx=0;exitDy=0;entryX=0;entryY=0.872;entryDx=0;entryDy=0;entryPerimeter=0;endArrow=none;startFill=0;" parent="1" source="rlX04aoV6FrLViZ-BKRS-46" target="rlX04aoV6FrLViZ-BKRS-12" edge="1">
          <mxGeometry relative="1" as="geometry" />
        </mxCell>
        <mxCell id="rlX04aoV6FrLViZ-BKRS-77" style="rounded=0;orthogonalLoop=1;jettySize=auto;html=1;exitX=1;exitY=0.5;exitDx=0;exitDy=0;entryX=0;entryY=0.688;entryDx=0;entryDy=0;entryPerimeter=0;endArrow=none;startFill=0;" parent="1" source="rlX04aoV6FrLViZ-BKRS-48" target="rlX04aoV6FrLViZ-BKRS-12" edge="1">
          <mxGeometry relative="1" as="geometry" />
        </mxCell>
        <mxCell id="rlX04aoV6FrLViZ-BKRS-78" value="(1, n)" style="text;html=1;align=center;verticalAlign=middle;resizable=0;points=[];autosize=1;strokeColor=none;fillColor=none;" parent="1" vertex="1">
          <mxGeometry x="550" y="50" width="50" height="30" as="geometry" />
        </mxCell>
        <mxCell id="rlX04aoV6FrLViZ-BKRS-79" value="(1, 1)" style="text;html=1;align=center;verticalAlign=middle;resizable=0;points=[];autosize=1;strokeColor=none;fillColor=none;" parent="1" vertex="1">
          <mxGeometry x="205" y="210" width="50" height="30" as="geometry" />
        </mxCell>
        <mxCell id="rlX04aoV6FrLViZ-BKRS-80" value="(n, 1)" style="text;html=1;align=center;verticalAlign=middle;resizable=0;points=[];autosize=1;strokeColor=none;fillColor=none;" parent="1" vertex="1">
          <mxGeometry x="565" y="405" width="50" height="30" as="geometry" />
        </mxCell>
        <mxCell id="rlX04aoV6FrLViZ-BKRS-81" value="" style="rounded=0;orthogonalLoop=1;jettySize=auto;html=1;exitX=0;exitY=1;exitDx=0;exitDy=0;entryX=1;entryY=0;entryDx=0;entryDy=0;endArrow=none;startFill=0;" parent="1" source="rlX04aoV6FrLViZ-BKRS-38" target="rlX04aoV6FrLViZ-BKRS-6" edge="1">
          <mxGeometry relative="1" as="geometry">
            <mxPoint x="689" y="386" as="sourcePoint" />
            <mxPoint x="664" y="435" as="targetPoint" />
          </mxGeometry>
        </mxCell>
        <mxCell id="rlX04aoV6FrLViZ-BKRS-82" value="(1, n)" style="text;html=1;align=center;verticalAlign=middle;resizable=0;points=[];autosize=1;strokeColor=none;fillColor=none;" parent="1" vertex="1">
          <mxGeometry x="630" y="410" width="50" height="30" as="geometry" />
        </mxCell>
        <mxCell id="rlX04aoV6FrLViZ-BKRS-83" value="(1, n)" style="text;html=1;align=center;verticalAlign=middle;resizable=0;points=[];autosize=1;strokeColor=none;fillColor=none;" parent="1" vertex="1">
          <mxGeometry x="530" y="435" width="50" height="30" as="geometry" />
        </mxCell>
        <mxCell id="rlX04aoV6FrLViZ-BKRS-84" value="(1, n)" style="text;html=1;align=center;verticalAlign=middle;resizable=0;points=[];autosize=1;strokeColor=none;fillColor=none;" parent="1" vertex="1">
          <mxGeometry x="230" y="690" width="50" height="30" as="geometry" />
        </mxCell>
        <mxCell id="rlX04aoV6FrLViZ-BKRS-85" value="(1, n)" style="text;html=1;align=center;verticalAlign=middle;resizable=0;points=[];autosize=1;strokeColor=none;fillColor=none;" parent="1" vertex="1">
          <mxGeometry x="230" y="780" width="50" height="30" as="geometry" />
        </mxCell>
        <mxCell id="rlX04aoV6FrLViZ-BKRS-86" value="(1, 1)" style="text;html=1;align=center;verticalAlign=middle;resizable=0;points=[];autosize=1;strokeColor=none;fillColor=none;" parent="1" vertex="1">
          <mxGeometry x="230" y="980" width="50" height="30" as="geometry" />
        </mxCell>
        <mxCell id="rlX04aoV6FrLViZ-BKRS-87" style="rounded=0;orthogonalLoop=1;jettySize=auto;html=1;exitX=0.5;exitY=1;exitDx=0;exitDy=0;entryX=0.21;entryY=0.028;entryDx=0;entryDy=0;entryPerimeter=0;endArrow=none;startFill=0;" parent="1" source="rlX04aoV6FrLViZ-BKRS-27" target="rlX04aoV6FrLViZ-BKRS-5" edge="1">
          <mxGeometry relative="1" as="geometry" />
        </mxCell>
        <mxCell id="jFBkz2gzpeNUejiPyCOK-6" style="edgeStyle=orthogonalEdgeStyle;rounded=0;orthogonalLoop=1;jettySize=auto;html=1;entryX=0;entryY=0.5;entryDx=0;entryDy=0;endArrow=none;startFill=0;" parent="1" source="jFBkz2gzpeNUejiPyCOK-1" target="jFBkz2gzpeNUejiPyCOK-2" edge="1">
          <mxGeometry relative="1" as="geometry" />
        </mxCell>
        <mxCell id="jFBkz2gzpeNUejiPyCOK-1" value="status" style="rounded=0;whiteSpace=wrap;html=1;" parent="1" vertex="1">
          <mxGeometry x="1020" y="280" width="120" height="60" as="geometry" />
        </mxCell>
        <mxCell id="jFBkz2gzpeNUejiPyCOK-2" value="&lt;font style=&quot;font-size: 10px;&quot;&gt;nome_status&lt;/font&gt;" style="ellipse;whiteSpace=wrap;html=1;" parent="1" vertex="1">
          <mxGeometry x="1190" y="295" width="60" height="30" as="geometry" />
        </mxCell>
        <mxCell id="jFBkz2gzpeNUejiPyCOK-7" value="(1, n)" style="text;html=1;align=center;verticalAlign=middle;resizable=0;points=[];autosize=1;strokeColor=none;fillColor=none;" parent="1" vertex="1">
          <mxGeometry x="720" y="40" width="50" height="30" as="geometry" />
        </mxCell>
        <mxCell id="jFBkz2gzpeNUejiPyCOK-9" value="(1, n)" style="text;html=1;align=center;verticalAlign=middle;resizable=0;points=[];autosize=1;strokeColor=none;fillColor=none;" parent="1" vertex="1">
          <mxGeometry x="640" y="495" width="50" height="30" as="geometry" />
        </mxCell>
        <mxCell id="jFBkz2gzpeNUejiPyCOK-12" value="(1, 1)" style="text;html=1;align=center;verticalAlign=middle;resizable=0;points=[];autosize=1;strokeColor=none;fillColor=none;" parent="1" vertex="1">
          <mxGeometry x="1110" y="340" width="50" height="30" as="geometry" />
        </mxCell>
        <mxCell id="jFBkz2gzpeNUejiPyCOK-13" value="(1, 1)" style="text;html=1;align=center;verticalAlign=middle;resizable=0;points=[];autosize=1;strokeColor=none;fillColor=none;" parent="1" vertex="1">
          <mxGeometry x="1000" y="340" width="50" height="30" as="geometry" />
        </mxCell>
        <mxCell id="jFBkz2gzpeNUejiPyCOK-15" value="(1, 1)" style="text;html=1;align=center;verticalAlign=middle;resizable=0;points=[];autosize=1;strokeColor=none;fillColor=none;" parent="1" vertex="1">
          <mxGeometry x="215" y="120" width="50" height="30" as="geometry" />
        </mxCell>
        <mxCell id="BOrns5498uaa-muqB88J-1" value="(1, 1)" style="text;html=1;align=center;verticalAlign=middle;resizable=0;points=[];autosize=1;strokeColor=none;fillColor=none;" parent="1" vertex="1">
          <mxGeometry x="120" y="720" width="50" height="30" as="geometry" />
        </mxCell>
        <mxCell id="BOrns5498uaa-muqB88J-2" value="(1, n)" style="text;html=1;align=center;verticalAlign=middle;resizable=0;points=[];autosize=1;strokeColor=none;fillColor=none;" parent="1" vertex="1">
          <mxGeometry x="560" width="50" height="30" as="geometry" />
        </mxCell>
        <mxCell id="NjA6TDDlJcinpMycYFUi-2" value="(1, 1)" style="text;html=1;align=center;verticalAlign=middle;resizable=0;points=[];autosize=1;strokeColor=none;fillColor=none;" vertex="1" parent="1">
          <mxGeometry x="635" y="70" width="50" height="30" as="geometry" />
        </mxCell>
        <mxCell id="NjA6TDDlJcinpMycYFUi-4" value="" style="endArrow=none;html=1;rounded=0;exitX=0.5;exitY=0;exitDx=0;exitDy=0;" edge="1" parent="1" source="rlX04aoV6FrLViZ-BKRS-62">
          <mxGeometry width="50" height="50" relative="1" as="geometry">
            <mxPoint x="480" y="420" as="sourcePoint" />
            <mxPoint x="205" y="210" as="targetPoint" />
            <Array as="points" />
          </mxGeometry>
        </mxCell>
        <mxCell id="NjA6TDDlJcinpMycYFUi-6" value="(1, 1)" style="text;html=1;align=center;verticalAlign=middle;resizable=0;points=[];autosize=1;strokeColor=none;fillColor=none;" vertex="1" parent="1">
          <mxGeometry x="1040" y="250" width="50" height="30" as="geometry" />
        </mxCell>
      </root>
    </mxGraphModel>
  </diagram>
</mxfile>
